# xmcd CD database file
# Copyright (C) 1993-1998 Ti Kan
#
# Track frame offsets:
#	150
#	18310
#	39878
#	53750
#	67218
#	78345
#	89770
#	102533
#	115428
#	127620
#	139603
#	155678
#	172185
#	187365
#	202485
#	219503
#	232770
#	248198
#
# Disc length: 3481 seconds
#
# Revision: 1
# Processed by: cddbd v1.4b41PL1 Copyright (c) Steve Scherf et al.
# Submitted via: CDValet v3.31 - Copyright (c) 1997 Greg Leichner
#
DISCID=0b0d9712
DTITLE=Selection Of FRANK SINATRA - CD II Romantic
DYEAR=1900
DGENRE=
TTITLE0=Night and Day
TTITLE1=Blues In The Night
TTITLE2=Three Coins In The Fountain
TTITLE3=From Here To Eternity
TTITLE4=I Love You
TTITLE5=My Funny Valentine
TTITLE6=April In PAris
TTITLE7=Autumn Leaves
TTITLE8=Pennies From Heaven
TTITLE9=Love Is Here To Stay
TTITLE10=Something
TTITLE11=My Way
TTITLE12=Stormy Weather
TTITLE13=Around The World
TTITLE14=Everybody Loves Somebody
TTITLE15=Dream
TTITLE16=Sentimental Journey
TTITLE17=All The Way
EXTD=
EXTT0=
EXTT1=
EXTT2=
EXTT3=
EXTT4=
EXTT5=
EXTT6=
EXTT7=
EXTT8=
EXTT9=
EXTT10=
EXTT11=
EXTT12=
EXTT13=
EXTT14=
EXTT15=
EXTT16=
EXTT17=
PLAYORDER=
